<?xml version="1.0" encoding="utf-8"?>
<!-- Generator: Adobe Illustrator 22.0.1, SVG Export Plug-In . SVG Version: 6.00 Build 0)  -->
<svg version="1.1" id="Layer_1" xmlns="http://www.w3.org/2000/svg" xmlns:xlink="http://www.w3.org/1999/xlink" x="0px" y="0px"
	 viewBox="0 0 200 200" style="enable-background:new 0 0 200 200;" xml:space="preserve">
<style type="text/css">
	.st0{fill:#333333;}
</style>
<g>
	<g>
		<polygon class="st0" points="35.7,78.1 35.7,122 49.5,122 49.5,93.3 36.1,78.1 		"/>
		<polygon class="st0" points="36.1,72.3 49.5,58.4 49.5,34.4 35.7,34.4 35.7,72.3 		"/>
		<polygon class="st0" points="110.4,34.4 93.7,34.4 52.8,74.9 96.4,122 113.2,122 69.5,74.9 		"/>
		<path class="st0" d="M120.9,107.7c2,1.7,4.3,2.5,7,2.5c2.2,0,4.1-0.4,5.5-1.2c0.5-0.3,1-0.7,1.5-1.1c-0.1-0.1-0.2-0.1-0.3-0.2
			c-2-1.7-3.3-4-4.1-6.9l-13.7,0C117.6,103.7,118.9,106,120.9,107.7z"/>
		<path class="st0" d="M154.5,34.4v59.2c0,3.2-0.4,6.6-1,10.1c-0.7,3.5-2,6.8-3.9,9.9c-1.9,3.1-4.6,5.6-8,7.5
			c-1.9,1.1-4,1.8-6.4,2.3c2.1,0.4,4.4,0.6,6.8,0.6c5.4,0,9.9-1,13.4-3c3.5-2,6.1-4.5,8-7.5c1.9-3,3.2-6.3,3.9-9.9
			c0.7-3.5,1-6.9,1-10.1V34.4H154.5z"/>
	</g>
</g>
<g>
	<path class="st0" d="M39.2,147.4l0.3-0.5l7.2-7.5h3.1l-7.3,7.6l7.7,10.1h-3l-6.4-8.6l-1.5,1.4l0,7.1h-2.4v-17.6h2.4v7.1L39.2,147.4
		z"/>
	<path class="st0" d="M72.4,139.4v2.3h-9.1v5.4h8.1v2.3h-8.1v5.4h9.4v2.3H61v-17.6H72.4z"/>
	<path class="st0" d="M86.8,139.4v15.4h9v2.3H84.5v-17.6H86.8z"/>
	<path class="st0" d="M109.6,139.4v15.4h9v2.3h-11.3v-17.6H109.6z"/>
	<path class="st0" d="M141.4,139.4v2.3h-9.1v5.4h8.1v2.3h-8.1v5.4h9.4v2.3H130v-17.6H141.4z"/>
	<path class="st0" d="M167.1,139.4l-6.6,11.8v5.9h-2.4v-5.9l-6.5-11.8h2.9l4.9,9.1l4.8-9.1H167.1z"/>
</g>
</svg>
